<?xml version="1.0" standalone="no"?>
<!DOCTYPE svg PUBLIC "-//W3C//DTD SVG 20010904//EN"
 "http://www.w3.org/TR/2001/REC-SVG-20010904/DTD/svg10.dtd">
<svg version="1.0" xmlns="http://www.w3.org/2000/svg"
 width="500.000000pt" height="500.000000pt" viewBox="0 0 500.000000 500.000000"
 preserveAspectRatio="xMidYMid meet">
<metadata>
Created by potrace 1.11, written by Peter Selinger 2001-2013
</metadata>
<g transform="translate(0.000000,500.000000) scale(0.100000,-0.100000)"
fill="#000000" stroke="none">
<path d="M0 2500 l0 -2500 804 0 804 0 0 1124 c-1 618 -4 1129 -7 1135 -4 6
-76 11 -191 14 -168 3 -263 15 -280 36 -3 4 -24 21 -48 40 -80 62 -122 158
-118 270 5 133 49 194 394 538 l253 252 -2 603 c-2 651 -2 645 52 734 41 67
141 135 219 150 19 3 130 6 246 6 205 0 213 -1 267 -26 146 -66 210 -181 211
-378 1 -43 5 -78 10 -79 7 -1 234 221 516 506 l74 75 -1602 0 -1602 0 0 -2500z"/>
<path d="M3960 4997 c0 -2 234 -236 520 -521 l520 -519 0 522 0 521 -520 0
c-286 0 -520 -1 -520 -3z"/>
<path d="M3225 1939 c-103 -13 -178 -54 -228 -125 -68 -95 -65 -49 -65 -975
l0 -839 655 0 656 0 -7 85 c-3 47 -6 424 -6 838 0 683 -2 758 -18 807 -29 93
-136 189 -229 206 -45 9 -692 11 -758 3z"/>
</g>
</svg>
